<?xml version="1.0" standalone="no"?>
<!DOCTYPE svg PUBLIC "-//W3C//DTD SVG 20010904//EN"
 "http://www.w3.org/TR/2001/REC-SVG-20010904/DTD/svg10.dtd">
<svg version="1.0" xmlns="http://www.w3.org/2000/svg"
 width="964.000000pt" height="566.000000pt" viewBox="0 0 964.000000 566.000000"
 preserveAspectRatio="xMidYMid meet">

<g transform="translate(0.000000,566.000000) scale(0.100000,-0.100000)"
fill="#000000" stroke="none">
<path d="M43 5645 c17 -19 17 -19 35 0 16 18 16 18 0 6 -15 -11 -21 -11 -35 0
-17 12 -17 12 0 -6z"/>
<path d="M114 5652 c3 -5 -8 -19 -25 -31 -29 -22 -31 -22 -50 -5 -16 14 -22
15 -32 4 -9 -10 -9 -11 1 -6 14 8 42 -10 42 -26 0 -5 -9 -7 -19 -3 -11 3 -22
1 -26 -4 -4 -7 1 -8 12 -4 17 6 17 5 0 -14 -16 -19 -17 -164 -17 -2743 l0
-2724 28 -25 c15 -14 20 -20 10 -12 -15 12 -21 12 -31 2 -9 -10 -9 -11 4 -6 9
3 22 -1 29 -10 7 -8 20 -15 29 -15 9 0 25 -7 35 -15 18 -13 599 -15 4743 -15
4182 0 4722 2 4717 15 -4 10 0 15 11 15 10 0 13 5 9 12 -4 6 -3 8 4 4 6 -3 14
-1 17 5 4 5 14 8 22 4 13 -4 14 -3 4 9 -8 10 -9 16 -1 21 7 4 10 842 10 2734
l0 2729 -39 35 c-22 19 -49 40 -60 47 -12 6 -19 15 -16 20 4 6 -1744 10 -4705
10 -2591 0 -4709 -4 -4706 -8z m7374 -1996 c93 -49 126 -148 79 -236 -61 -116
-236 -119 -302 -6 -67 114 15 255 148 256 26 0 60 -6 75 -14z m-4188 -581 l0
-545 -175 0 -175 0 0 545 0 545 175 0 175 0 0 -545z m490 0 l0 -545 -175 0
-175 0 0 545 0 545 175 0 175 0 0 -545z m-2128 465 c94 -14 167 -44 212 -87
51 -50 68 -92 68 -174 1 -85 -28 -141 -94 -186 l-48 -31 32 -11 c49 -17 95
-57 125 -108 34 -58 38 -152 10 -225 -24 -61 -97 -129 -173 -159 -57 -23 -70
-24 -366 -27 l-308 -3 0 510 0 511 238 0 c130 0 267 -5 304 -10z m3481 -493
c108 -277 197 -507 197 -510 0 -4 -85 -7 -189 -7 l-189 0 -24 73 -25 72 -159
3 -160 2 -24 -75 -24 -75 -183 0 c-101 0 -183 4 -183 9 0 9 386 987 396 1002
3 5 87 9 187 9 l183 0 197 -503z m-2503 232 c61 -28 112 -74 137 -123 37 -71
43 -126 43 -383 l0 -253 -150 0 -150 0 0 31 0 31 -34 -30 c-68 -59 -191 -66
-294 -16 -97 48 -145 150 -121 262 16 77 79 141 170 171 54 18 192 41 247 41
20 0 14 28 -10 44 -35 25 -88 19 -157 -15 l-63 -32 -81 81 -81 81 22 24 c32
33 115 78 187 99 93 27 262 21 335 -13z m4290 0 c61 -28 112 -74 137 -123 37
-71 43 -126 43 -383 l0 -253 -150 0 -150 0 0 31 0 31 -34 -30 c-68 -59 -191
-66 -294 -16 -97 48 -145 150 -121 262 16 77 79 141 170 171 54 18 192 41 247
41 20 0 14 28 -10 44 -35 25 -88 19 -157 -15 l-63 -32 -81 81 -81 81 22 24
c32 33 115 78 187 99 93 27 262 21 335 -13z m1478 2 c22 -11 56 -39 76 -63 60
-70 66 -106 66 -415 l0 -273 -170 0 -170 0 0 228 c0 249 -5 272 -56 272 -75 0
-84 -33 -84 -291 l0 -209 -170 0 -170 0 0 380 0 380 165 0 165 0 0 -41 0 -41
42 37 c23 19 63 42 88 50 60 20 166 13 218 -14z m-2568 -5 c19 -10 47 -30 63
-44 l27 -26 0 37 0 37 160 0 160 0 0 -352 c0 -194 -5 -382 -10 -418 -21 -129
-99 -232 -218 -288 -54 -25 -67 -27 -229 -30 -133 -3 -185 0 -235 13 -81 20
-188 70 -188 87 0 10 113 190 136 217 2 2 30 -10 61 -27 165 -87 329 -49 350
83 l6 36 -48 -30 c-119 -75 -287 -59 -398 38 -48 43 -95 140 -108 226 -29 186
71 388 222 447 58 23 198 20 249 -6z m1740 -366 l0 -380 -170 0 -170 0 0 373
c0 206 3 377 7 380 3 4 80 7 170 7 l163 0 0 -380z"/>
<path d="M1450 3221 l0 -61 53 0 c70 0 101 17 105 56 4 42 -16 55 -93 62 l-65
5 0 -62z"/>
<path d="M1450 2871 l0 -71 54 0 c58 0 106 13 118 33 4 7 8 24 8 39 0 38 -36
59 -115 66 l-65 5 0 -72z"/>
<path d="M4721 3078 c-19 -57 -36 -109 -38 -115 -4 -10 14 -13 72 -13 69 0 76
2 71 18 -4 10 -21 62 -39 115 l-32 98 -34 -103z"/>
<path d="M2430 2829 c-44 -8 -80 -37 -80 -65 0 -26 39 -54 75 -54 46 0 92 42
101 93 6 36 5 37 -22 36 -16 -1 -49 -5 -74 -10z"/>
<path d="M6720 2829 c-44 -8 -80 -37 -80 -65 0 -26 39 -54 75 -54 46 0 92 42
101 93 6 36 5 37 -22 36 -16 -1 -49 -5 -74 -10z"/>
<path d="M5770 3021 c-14 -3 -32 -10 -41 -16 -76 -49 -60 -190 26 -214 91 -25
165 26 165 115 0 77 -74 134 -150 115z"/>
<path d="M9563 5645 c17 -19 17 -19 35 0 16 18 16 18 0 6 -15 -11 -21 -11 -35
0 -17 12 -17 12 0 -6z"/>
<path d="M9599 5613 c-13 -16 -12 -17 3 -5 9 8 23 10 29 6 8 -4 9 -3 5 4 -10
17 -21 15 -37 -5z"/>
<path d="M9610 5586 c0 -2 7 -7 16 -10 8 -3 12 -2 9 4 -6 10 -25 14 -25 6z"/>
<path d="M4 18 c-4 -7 -3 -8 5 -4 6 4 20 2 29 -6 15 -12 16 -11 3 5 -16 20
-27 22 -37 5z"/>
<path d="M9599 13 c-13 -16 -12 -17 3 -5 9 8 23 10 29 6 8 -4 9 -3 5 4 -10 17
-21 15 -37 -5z"/>
</g>
</svg>
